<svg width="24" height="24" viewBox="0 0 24 24" fill="none" xmlns="http://www.w3.org/2000/svg">
<g clip-path="url(#clip0_100_633)">
<g filter="url(#filter0_d_100_633)">
<path d="M12 22.0363C18.0249 22.0363 22.9091 17.1521 22.9091 11.1272C22.9091 5.10231 18.0249 0.21814 12 0.21814C5.97509 0.21814 1.09091 5.10231 1.09091 11.1272C1.09091 13.1622 1.64808 15.067 2.61818 16.6974L1.09091 22.0363L6.42984 20.509C8.06027 21.4792 9.96507 22.0363 12 22.0363Z" fill="white" stroke="white" stroke-linejoin="round"/>
<path d="M22.0364 11.1272C22.0364 5.58425 17.5429 1.09082 12 1.09082C6.45709 1.09082 1.96365 5.58425 1.96365 11.1272C1.96365 16.6701 6.45709 21.1635 12 21.1635C17.5429 21.1635 22.0364 16.6701 22.0364 11.1272Z" fill="#00D319"/>
<path d="M18.525 16.9773H5.47501C5.41532 16.9773 5.35809 16.9536 5.31589 16.9114C5.27369 16.8692 5.25 16.812 5.25 16.7523V16.3023C5.25035 16.004 5.369 15.7181 5.57989 15.5072C5.79081 15.2963 6.07673 15.1776 6.37501 15.1773H6.82501C7.00403 15.1773 7.17572 15.1062 7.30231 14.9796C7.42889 14.853 7.5 14.6813 7.5 14.5023V7.30228C7.5 7.24259 7.52369 7.18536 7.56589 7.14316C7.60809 7.10099 7.66532 7.07727 7.72501 7.07727C7.78468 7.07727 7.84191 7.10099 7.88411 7.14316C7.92631 7.18536 7.95 7.24259 7.95 7.30228V14.5023C7.94965 14.8005 7.831 15.0865 7.62011 15.2974C7.40919 15.5083 7.12327 15.6269 6.82501 15.6273H6.37501C6.19597 15.6273 6.02428 15.6984 5.89769 15.825C5.77111 15.9516 5.7 16.1232 5.7 16.3023V16.5273H18.3V16.3023C18.3 16.1232 18.2289 15.9516 18.1023 15.825C17.9757 15.6984 17.804 15.6273 17.625 15.6273H17.175C16.8767 15.6269 16.5908 15.5083 16.3799 15.2974C16.169 15.0865 16.0503 14.8005 16.05 14.5023V13.1523C16.05 13.0996 16.0684 13.0485 16.1022 13.008L18.1171 10.5904C18.1502 10.5506 18.1686 10.5006 18.1692 10.4487C18.1697 10.3969 18.1523 10.3465 18.12 10.306L17.7074 9.7901C17.6724 9.74581 17.622 9.7164 17.5662 9.70776C17.5104 9.69912 17.4535 9.71188 17.4067 9.74352L16.4001 10.4145C16.3662 10.4371 16.3268 10.4502 16.2861 10.4522C16.2454 10.4542 16.2049 10.4451 16.1689 10.4259C16.133 10.4066 16.1029 10.378 16.082 10.343C16.061 10.3081 16.05 10.268 16.05 10.2273V7.30228C16.05 7.24259 16.0737 7.18536 16.1159 7.14316C16.1581 7.10099 16.2153 7.07727 16.275 7.07727C16.3347 7.07727 16.3919 7.10099 16.4341 7.14316C16.4763 7.18536 16.5 7.24259 16.5 7.30228V9.80697L17.1568 9.36912C17.297 9.2744 17.4678 9.23618 17.635 9.26208C17.8022 9.288 17.9534 9.37614 18.0583 9.50884L18.4712 10.0248C18.5679 10.1465 18.6198 10.2978 18.6183 10.4532C18.6167 10.6087 18.5618 10.7589 18.4627 10.8787L16.5 13.2337V14.5023C16.5 14.6813 16.5711 14.853 16.6977 14.9796C16.8243 15.1062 16.996 15.1773 17.175 15.1773H17.625C17.9233 15.1776 18.2092 15.2963 18.4201 15.5072C18.631 15.7181 18.7497 16.004 18.75 16.3023V16.7523C18.75 16.812 18.7263 16.8692 18.6841 16.9114C18.6419 16.9536 18.5847 16.9773 18.525 16.9773Z" fill="black"/>
<path d="M7.72502 7.07723C7.7847 7.07723 7.84193 7.10095 7.88412 7.14312C7.92632 7.18532 7.95001 7.24255 7.95001 7.30224V14.5022C7.94966 14.8005 7.83102 15.0864 7.62012 15.2973C7.4092 15.5082 7.12328 15.6269 6.82502 15.6272H6.37502C6.19598 15.6272 6.0243 15.6983 5.89771 15.8249C5.77112 15.9515 5.70001 16.1232 5.70001 16.3022V16.5272H18.3V16.3022C18.3 16.1232 18.2289 15.9515 18.1023 15.8249C17.9757 15.6983 17.804 15.6272 17.625 15.6272H17.175C16.8767 15.6269 16.5908 15.5082 16.3799 15.2973C16.169 15.0864 16.0504 14.8005 16.05 14.5022V13.1522C16.05 13.0995 16.0684 13.0485 16.1022 13.008L18.1171 10.5904C18.1503 10.5506 18.1686 10.5005 18.1692 10.4487C18.1697 10.3969 18.1523 10.3465 18.12 10.306L17.7074 9.79006C17.6724 9.74577 17.622 9.71636 17.5662 9.70772C17.5105 9.69908 17.4535 9.71184 17.4068 9.74348L16.4001 10.4144C16.3662 10.4371 16.3268 10.4501 16.2861 10.4521C16.2454 10.4541 16.2049 10.4451 16.1689 10.4258C16.133 10.4066 16.1029 10.378 16.082 10.343C16.061 10.308 16.05 10.268 16.05 10.2272V7.30224C16.05 7.24255 16.0737 7.18532 16.1159 7.14312C16.1581 7.10095 16.2153 7.07723 16.275 7.07723L15.96 6.08723L14.736 5.51123H9.19201L8.25601 5.94323L7.72502 7.07723Z" fill="#58331E"/>
<path d="M9.768 16.3113C9.71071 16.3113 9.65577 16.2908 9.61527 16.2545C9.57476 16.218 9.552 16.1687 9.552 16.1172V12.0414C9.552 11.9899 9.57476 11.9405 9.61527 11.9041C9.65577 11.8677 9.71071 11.8473 9.768 11.8473C9.8253 11.8473 9.88024 11.8677 9.92073 11.9041C9.96125 11.9405 9.984 11.9899 9.984 12.0414V16.1172C9.984 16.1687 9.96125 16.218 9.92073 16.2545C9.88024 16.2908 9.8253 16.3113 9.768 16.3113Z" fill="#BCBCBC"/>
<path d="M14.475 9.32722H9.52501C8.98793 9.32722 8.47287 9.11388 8.09311 8.73412C7.71334 8.35435 7.5 7.83929 7.5 7.30223C7.5 6.76516 7.71334 6.25009 8.09311 5.87033C8.47287 5.49056 8.98793 5.27722 9.52501 5.27722H14.475C15.0121 5.27722 15.5271 5.49056 15.9069 5.87033C16.2867 6.25009 16.5 6.76516 16.5 7.30223C16.5 7.83929 16.2867 8.35435 15.9069 8.73412C15.5271 9.11388 15.0121 9.32722 14.475 9.32722ZM9.52501 5.72722C9.10728 5.72722 8.70668 5.89315 8.4113 6.18852C8.11593 6.4839 7.95 6.8845 7.95 7.30223C7.95 7.71994 8.11593 8.12055 8.4113 8.41592C8.70668 8.71129 9.10728 8.87722 9.52501 8.87722H14.475C14.8927 8.87722 15.2933 8.71129 15.5887 8.41592C15.8841 8.12055 16.05 7.71994 16.05 7.30223C16.05 6.8845 15.8841 6.4839 15.5887 6.18852C15.2933 5.89315 14.8927 5.72722 14.475 5.72722H9.52501Z" fill="black"/>
<path d="M13.575 8.42725C13.5153 8.42725 13.4581 8.40355 13.4159 8.36136C13.3737 8.31916 13.35 8.26193 13.35 8.20226C13.35 8.14256 13.3737 8.08533 13.4159 8.04314C13.4581 8.00094 13.5153 7.97725 13.575 7.97725C13.754 7.97725 13.9257 7.90614 14.0523 7.77955C14.1789 7.65296 14.25 7.48128 14.25 7.30226C14.25 7.12322 14.1789 6.95153 14.0523 6.82494C13.9257 6.69835 13.754 6.62725 13.575 6.62725H10.425C10.246 6.62725 10.0743 6.69835 9.94768 6.82494C9.82109 6.95153 9.74999 7.12322 9.74999 7.30226C9.74999 7.48128 9.82109 7.65296 9.94768 7.77955C10.0743 7.90614 10.246 7.97725 10.425 7.97725H12.45C12.5097 7.97725 12.5669 8.00094 12.6091 8.04314C12.6513 8.08533 12.675 8.14256 12.675 8.20226C12.675 8.26193 12.6513 8.31916 12.6091 8.36136C12.5669 8.40355 12.5097 8.42725 12.45 8.42725H10.425C10.1266 8.42725 9.84047 8.30873 9.62949 8.09775C9.4185 7.88677 9.29999 7.60062 9.29999 7.30226C9.29999 7.00387 9.4185 6.71773 9.62949 6.50674C9.84047 6.29576 10.1266 6.17725 10.425 6.17725H13.575C13.8734 6.17725 14.1595 6.29576 14.3705 6.50674C14.5815 6.71773 14.7 7.00387 14.7 7.30226C14.7 7.60062 14.5815 7.88677 14.3705 8.09775C14.1595 8.30873 13.8734 8.42725 13.575 8.42725Z" fill="#BCBCBC"/>
<path d="M12.675 7.52727H11.325C11.2653 7.52727 11.2081 7.50358 11.1659 7.46138C11.1237 7.41918 11.1 7.36195 11.1 7.30228C11.1 7.24259 11.1237 7.18536 11.1659 7.14316C11.2081 7.10096 11.2653 7.07727 11.325 7.07727H12.675C12.7347 7.07727 12.7919 7.10096 12.8341 7.14316C12.8763 7.18536 12.9 7.24259 12.9 7.30228C12.9 7.36195 12.8763 7.41918 12.8341 7.46138C12.7919 7.50358 12.7347 7.52727 12.675 7.52727Z" fill="#BCBCBC"/>
<path d="M12 13.8272C11.9403 13.8272 11.8831 13.8035 11.8409 13.7613C11.7987 13.7191 11.775 13.6619 11.775 13.6022V10.4522C11.775 10.3925 11.7987 10.3353 11.8409 10.2931C11.8831 10.2509 11.9403 10.2272 12 10.2272C12.0597 10.2272 12.1169 10.2509 12.1591 10.2931C12.2013 10.3353 12.225 10.3925 12.225 10.4522V13.6022C12.225 13.6619 12.2013 13.7191 12.1591 13.7613C12.1169 13.8035 12.0597 13.8272 12 13.8272Z" fill="#BCBCBC"/>
<path d="M14.25 15.8522C14.1903 15.8522 14.1331 15.8285 14.0909 15.7863C14.0487 15.7441 14.025 15.6868 14.025 15.6272V12.7022C14.025 12.6425 14.0487 12.5853 14.0909 12.5431C14.1331 12.5009 14.1903 12.4772 14.25 12.4772C14.3097 12.4772 14.3669 12.5009 14.4091 12.5431C14.4513 12.5853 14.475 12.6425 14.475 12.7022V15.6272C14.475 15.6868 14.4513 15.7441 14.4091 15.7863C14.3669 15.8285 14.3097 15.8522 14.25 15.8522Z" fill="#BCBCBC"/>
<path d="M14.25 12.0272C14.1903 12.0272 14.1331 12.0035 14.0909 11.9613C14.0487 11.9191 14.025 11.8619 14.025 11.8022V11.1272C14.025 11.0675 14.0487 11.0103 14.0909 10.9681C14.1331 10.9259 14.1903 10.9022 14.25 10.9022C14.3097 10.9022 14.3669 10.9259 14.4091 10.9681C14.4513 11.0103 14.475 11.0675 14.475 11.1272V11.8022C14.475 11.8619 14.4513 11.9191 14.4091 11.9613C14.3669 12.0035 14.3097 12.0272 14.25 12.0272Z" fill="#BCBCBC"/>
</g>
</g>
<defs>
<filter id="filter0_d_100_633" x="-0.409088" y="-0.28186" width="24.8182" height="24.8182" filterUnits="userSpaceOnUse" color-interpolation-filters="sRGB">
<feFlood flood-opacity="0" result="BackgroundImageFix"/>
<feColorMatrix in="SourceAlpha" type="matrix" values="0 0 0 0 0 0 0 0 0 0 0 0 0 0 0 0 0 0 127 0" result="hardAlpha"/>
<feOffset dy="1"/>
<feGaussianBlur stdDeviation="0.5"/>
<feComposite in2="hardAlpha" operator="out"/>
<feColorMatrix type="matrix" values="0 0 0 0 0 0 0 0 0 0 0 0 0 0 0 0 0 0 0.5 0"/>
<feBlend mode="normal" in2="BackgroundImageFix" result="effect1_dropShadow_100_633"/>
<feBlend mode="normal" in="SourceGraphic" in2="effect1_dropShadow_100_633" result="shape"/>
</filter>
<clipPath id="clip0_100_633">
<rect width="24" height="24" fill="white"/>
</clipPath>
</defs>
</svg>
