<?xml version="1.0" encoding="UTF-8"?>
<svg version="1.1" viewBox="0 0 800 800" width="200" height="200" xmlns="http://www.w3.org/2000/svg">
<path transform="translate(376,54)" d="m0 0h44l29 3 30 6 30 9 25 10 21 10 22 13 17 12 14 11 15 13 25 25 7 8 12 14 10 13 12 16 11 17 10 18 10 21 10 26 9 31 5 25 3 22 1 13v40l-2 24-4 25-5 21-12 36-15 33-10 18-14 21-9 12-9 11-11 13-19 19-8 7-16 13-27 18-21 12-21 10-24 9-24 7-29 6-23 3-32 2-35-2-23-3-25-5-25-7-22-8-26-12-20-11-24-16-14-11-14-12-25-25-9-11-11-14-11-16-9-15-12-22-10-22-10-28-8-30-6-35-3-26-1-21v-27l2-27 5-29 8-30 10-28 14-29 9-16 16-24 11-14 12-14 23-23 11-9 12-10 24-16 19-11 16-8 24-10 26-8 26-6 27-4zm122 289 1 5 7 19 4 20v25l-3 15-5 15-9 17-10 13-6 7-17 13-19 10-16 5-11 2h-30l-18-4-15-6-13-7-13-10-11-11-10-14-8-16-5-15-3-17v-18l3-18 6-20 2-4v-3l-9 3-16 7-21 11-17 12-14 12-18 18-8 11 6 7 7 8 15 14 13 11 18 13 15 10 21 12 19 9 22 8 25 6 22 3h41l17-2 24-5 24-8 31-15 26-16 21-16 14-12 13-12 15-15-3-5-12-14-18-18-16-12-14-9-12-7-24-10-5-2zm-134 63-9 4-4 6-1 3v8l4 8 6 4 9 1 7-3 5-5 2-4v-10l-4-7-6-4z" fill="#B9472A"/>
<path transform="translate(585,272)" d="m0 0h2l3 8 5 6 4 7 4 5 6 11 12 20 7 11 10 15v2h2l4 8-2 2-6 2-1 5 5 16 13 23 3 5v3h2v3l2 1 6 10 7 11 8 13 3 3 3 7v10l-2 8-5 13-6 13-6 12-9 16-4 5-5 9-8 11-9 12-5 6-4 4h-2l-2 4-16 16-8 7-3 3-5 3h-2v2h-2v2l-11 8-4 1v2l-16 10-11 6-17 9-12 5-20 7-17 5-22 5-23 3-29 2-31-1-25-3-8-1-15-5-6-3-4-6-2-1v-3l-3-1-9-11-2-4h-2l-8-11-2-2v-3h-2l-6-9-3-4v-3l-3-1-7-9-6-8-8-10-6-9-6-8v-3h-2l-6-8-7-11-6-7-7-11-4-5-8-11-6-10 2-1 12-2 10-5 9-6 7-4 6-1 10 5 5 5 3 4 1 9-4 15v7l8 24 2 1 3-3 6-8 9-8 10-4h14l10 5 8 10 2 6 2 28 3 12 6 11 9 9 10 7 5 2-2-9-3-9-1-5v-17l4-16 7-9 8-6 9-3h18l10 5 5 5 8 7 8 4 20 7 10 6 7 7 5 10h2l4-10v-17l-5-14v-9l4-6 8-5h12l13 3 18 7 3 2 5 1v-14l-5-12v-8l5-6 6-4h10l7 4 4 6v2l5-1 3-13 2-22 4-11 5-5h12l7 1-3-21 3-14 8-16 7-11 5-9-1-5-4-8-4-7-4-5-8-13-3-8-1-7-1-19-4-10-3-3h-4l-4 5-5 1-2-1-1-6 4-10 5-9 2-8z" fill="#58211D"/>
<path transform="translate(390,284)" d="m0 0h15l13 2 23 7 17 9 14 10 10 9 11 15 8 14 7 21 3 16v25l-3 15-5 15-9 17-10 13-7 8-17 13-19 10-16 5-11 2h-30l-18-4-15-6-13-7-13-10-12-12-10-14-8-16-5-15-3-17v-18l3-18 6-20 3-5 3-7 7-11 11-13 8-7 17-11 11-5 17-6zm-26 122-9 4-4 6-1 3v8l4 8 6 4 9 1 7-3 5-5 2-4v-10l-4-7-6-4z" fill="#B9472A"/>
<path transform="translate(353,105)" d="m0 0 4 1 11 12 10 14 10 21 6 18 7 25 8 20 6 10 5 8 8 8 14 7 7 2h22l12-4 10-7 6-9 3-12v-18l-1-8 5 2 7 9 8 16 5 17v6l-6 9h-2l-2 5h-2v2l-4 4-5 6-10 5-5 1h-10l-6-2-28-5-8-2-27-3h-17l-29 4-12 3-14 4-8 3-11 4-16 8-10 7-2 1-4 6 10-4 19-8 22-7 16-3 26-4h33l13 2 13 1 24 5 24 8 25 12 21 12 18 12 16 12 8 7 7 6v2h2l7 8 14 14 7 8 7 10-1 6-7 10-3 2-1 3-4 2-8-10-11-12-13-13-16-12-14-9-12-7-24-10-5-2-5-1-6-10-11-14-12-10-16-10-13-6-24-7-9-1h-15l-24 6-19 8-13 8-8 6h-2l-1 3-6 5-13 18-3 5-2 4v-2l-23 10-20 10-16 11-11 9-10 9-14 14-9 12-5-5-1-3h-2l-8-11-1-4 6-11 5-8h2l3-9 11-22 6-10 4-7 4-23v-30l2-18 3-13 5-10 2-2h3l2 23 4 13 5 6 5 3 4 1h7l10-4 7-8 3-7v-11l-2-11-1-7v-12l3-16 5-15 9-17 2-4h2l4 11 2 18v12l2 10 4 8 6 5 8 3h9l6-3 5-7 3-11v-9l-3-16-1-6 4 1 6 8v2l4-1 2-8v-20l-4-27-4-26z" fill="#EF8D38"/>
<path transform="translate(672,196)" d="m0 0 5 5 12 16 11 17 10 18 10 21 10 26 9 31 5 25 3 22 1 13v40l-2 24-4 25-5 21-12 36-15 33-10 18-14 21-9 12-9 11-11 13-19 19-8 7-16 13-27 18-21 12-21 10-24 9-24 7-29 6-23 3-32 2-35-2-23-3-25-5-25-7-22-8-26-12-20-11-24-16-14-11-14-12-25-25-9-11-11-14-11-16-9-15-12-22-10-22-10-28-8-30-4-24 2 1 5 19 2 7 15 36 9 17 8 16 7 12 11 16 13 16 8 10 5 5v2l4 2 12 12 8 7 9 8 14 10 16 11 28 16 5 3 16 6 18 7 25 8 22 5 25 4 10 1 29 1 33-2 29-5 25-6 30-10 12-5 16-7 20-11 20-13 11-8 9-7 13-12 4-2v-2l8-7 4-2 2-4 8-8 7-10h2l2-4 10-13 12-18 10-18 9-17 10-25 6-19 7-29 3-14 3-24 1-13v-26l-1-21-4-27-7-31-10-30-8-17-6-11-4-11v-3l-3-1-7-14-5-6v-3l-2-1z" fill="#CAA88F"/>
<path transform="translate(376,54)" d="m0 0h44l29 3 30 6 30 9 25 10 21 10 22 13 17 12 10 8-2 2-5-1-23-12-4-1-2 1-7-3-12-2-13-1-7-3-7-1-3-2v-2h-5l-6-3-6-1-18-6-28-7-9-2h-8l-26-3h-29l-17 2-3 1-19 2-30 7-23 8-28 12-19 10-11 7-7 4-11 8h-2v2l-6 4h-2v2l-4 1v3l-6 4-4 2v2l-6 5h-2l-1 3-2 1-1 3-4 1v3l-5 5-7 8h-2l-2 4h-2l-1 4-4 4-3 7h-2l-1 4-6 8-4 7-3 5-5 8-5 11h-2l-1 5-4 8-2 6h-2v5l-4 8-6 13-4 8h-2v2l-7 3-2 5v2h-2l-1 5h-2l-1 4-2 1-1 4h-2l-1 5-2 2 1-11 5-22 7-24 9-24 12-25 10-18 16-24 11-14 12-14 23-23 11-9 12-10 24-16 19-11 16-8 24-10 26-8 26-6 27-4z" fill="#EF8D38"/>
<path transform="translate(381,277)" d="m0 0h33l13 2 13 1 24 5 24 8 25 12 21 12 18 12 16 12 8 7 7 6v2h2l7 8 14 14 7 8 7 10-1 6-7 10-3 2-1 3-4 2-8-10-11-12-13-13-16-12-14-9-12-7-24-10-5-2-5-1-6-10-11-14-12-10-16-10-13-6-24-7-9-1h-15l-24 6-19 8-13 8-8 6h-2l-1 3-6 5-13 18-3 5-2 4v-2l-23 10-20 10-16 11-11 9-10 9-14 14-9 12-5-5-1-3h-2l-8-11-1-4 4-7h2l1-3 3-3h2v-2h2l2-4 7-8 5-6 8-7 4-2 2-4 14-11 16-12 14-10 9-5 15-9 20-9 18-7 19-5 9-3z" fill="#C9A88F"/>
<path transform="translate(390,344)" d="m0 0h12l11 2 13 5 11 8 7 8 7 14 2 8v15l-4 16-4 8-7 9-11 8-4 4-13 4h-23l-15-5-9-7v-1l12-3 5-5 2-4v-10l-4-7-8-4-9 1-6 3-5 9-3-4-2-5-1-7v-14l4-13 5-10 9-10 9-6 15-6z" fill="#20201F"/>
<path transform="translate(456,413)" d="m0 0 6 2 4 5 4 8v2h2l3 10 4 8-1 6-2 4h-2v3h-2l-2 6-10 10-13 8-17 8-16 4h-27l-11-2-20-7-18-11v-2l-4-2-6-6v-2h-2l-6-11v-6l12-14h2v-2l4-3h2l2-6 3-2 4 1 4 10 5 5 6 2 2 4 8 5 13 4h23l15-5 5-5 6-5 5-3 3-4h2l2-5 6-10h2z" fill="#F39A3B"/>
<path transform="translate(390,284)" d="m0 0h15l13 2 23 7 17 9 14 10 10 9 11 15 2 6-10-2-26-7-25-4-29-2h-13l-31 2-16 3-16 4-13 4-7 2-4-1 5-9 12-14 15-12 15-9 7-2v-2l14-5z" fill="#59211D"/>
<path transform="translate(353,105)" d="m0 0 4 1 11 12 10 14 10 21 6 18 7 25v5l-7-1-6-4h-8l-6 4-5 7-7 14-9 12-5 6h-2v2l-6 4-9 1-10-2-16-8-8-5-3 1-1 3-1 23-3 10-7 8-6 5h-2v2h-2v2l-6 4-9 1-6-2-3-4v-3h14l10-4 7-8 3-7v-11l-2-11-1-7v-12l3-16 5-15 9-17 2-4h2l4 11 2 18v12l2 10 4 8 6 5 8 3h9l6-3 5-7 3-11v-9l-3-16-1-6 4 1 6 8v2l4-1 2-8v-20l-4-27-4-26z" fill="#F6AD3E"/>
<path transform="translate(342,291)" d="m0 0h8l-1 5-17 9-16 13-10 13-6 9-1 6-23 10-20 10-16 11-11 9-10 9-14 14-9 12-5-5-1-3h-2l-8-11-1-4 4-7h2l1-3 3-3h2v-2h2l2-4 7-8 5-6 8-7 4-2 2-4 10-8 7-3 15-10 5-2v-2l19-11 5-3h3v-2l5-2h3v-2l4-1 8-3 9-3 4-3 8-1 9-3z" fill="#C9A88F"/>
<path transform="translate(380,195)" d="m0 0h8l8 5 5 1 1-2 3 8-1 5-6-1-7-5-8-1-1-3-7 1-1 5h3l4 1 1 5-1 2-5 3-4 4-2-1-3 2h-2v2l3 1-2 3h-2l-1 2-1-2-5 7v3h-2l-1 3-5 2-5 4-9 4-8 1-4 1-6-2h-8l-6 3-8 13-4 6-4 3h-2v2l-18 14-3 1h-13l-6-2h-3v-2h-2l-2 4v3l-1 7-4 24-4 7h-2l-4 7h-2l-1 3-5 4-9 11-2 4-1 3h-2v2h-2l1-4 3-6 3-1v-5l3-5 1-4h2l1-4 4-7v-8l3-18v-30l2-18 3-13 5-10 2-2h3l2 23 4 13 5 6 5 4h-3l3 5v2h5l5 1 7-2 4-2v-2h2v-2l9-7 5-6 3-10 1-23 2-4 3-1 13 8 11 5 12 2 9-2 4-2v-2l5-4 7-10 6-10 6-11 6-7z" fill="#F39B3B"/>
<path transform="translate(381,277)" d="m0 0h33l13 2 13 1 24 5 24 8 25 12 21 12 18 12 16 12 8 7 7 6v2h2l7 8 14 14 7 8 4 5-1 2-15-15-7-8-4-4-5-3-4-3v-2l-5-2-4-4-9-6v-2l-4-2-6-4v-2h-4l-5-5-3-1v-2l-4-1-1-3-4-1-3-1v-2h-4v-2l-4-1-10-5v-2l-6-1-5-2-7-4-5-2-5-1v-2l-5-1-7-2-12-3h-6l-7-1h-2v3l5 2-2 1-12-5-21-6-9-1h-15l-24 6-19 8-13 8-8 6h-2l-1 3-6 5-13 18-3 5-2 4v-8l7-10 10-13 12-10 11-7 8-4h2l1-5-12 2-4 1-8 3-8 1-4 3-8 2-2 2-7 2-2 1-2-1v2l-4 2h-4v2l-12 6-13 8h-2v2l-11 7-12 8-2-1 10-8 15-11 7-5 9-5 15-9 20-9 18-7 19-5 9-3z" fill="#C2997E"/>
<path transform="translate(421,450)" d="m0 0 5 1 1 5v5l2 3 1 12 5 5 1 4-5 3h-2v2l-16 4-15 1-14-2-12-4v-2l-5-2v-2l-3-1 1-7 3-10 7-9 3-1 2-2 17 1 12-1 1-1 9-1z" fill="#F6AF3E"/>
<path transform="translate(353,105)" d="m0 0 4 1 11 12 10 14 10 21 2 5v17l2 5h-2v2h2l-2 6-3 2h-7v2l-5 2-3 3h-2l-2 4-4 2-2 2-1-7 2 1 5-11 1-8v-9l-4-9h-2l-2-10-1-7-2-8-2-5-3-19z" fill="#F6BA45"/>
<path transform="translate(728,410)" d="m0 0 2 1-2 16v10l-3 15-2 11-3 13-3 8-4 16h-2l-1 8-4 8-4 10-4 7-6 11-4 8-6 9-6 10-11 15-7 8-7 9h-2v2h-2l-2 4-4 5-5 4h-2l-2 4-8 7-9 9h-2l-2 4-10 8-9 5-3 3-3 1-2 3-5 1v2l-6 3-5 3h-3l-1 3-7 3-6 3-9 5-6 2h-3v2l-2 1h-6v2l-3 2h-5v2l-7 3-8 2-9 2-5 2-17 5-7 1-11 1-7 2h-5l-5 1-12 1h-5l-4 1-3-1-5 1-53-2-2-2-15-2-32-8-10-3-6-2-10-4-10-3v-2l-7-2-1-3 10 3 14 6 27 9 26 6 25 4 10 1 29 1 33-2 29-5 25-6 30-10 12-5 16-7 20-11 20-13 11-8 9-7 13-12 4-2v-2l8-7 4-2 2-4 8-8 7-10h2l2-4 10-13 12-18 10-18 9-17 10-25 6-19 7-29 3-14 3-24z" fill="#C1997F"/>
<path transform="translate(393,162)" d="m0 0 5 5 6 9 6 8 12 19 11 16 4 5 3 5 7 10 2 5v4h-7l-9-5-10-9-6-9-9-15-7-16-7-26z" fill="#58211D"/>
<path transform="translate(456,413)" d="m0 0 6 2 4 5 4 8v2h2l3 10 4 8-1 6-2 4h-2v3h-2l-2 6-10 10h-2v-2h2l2-7-5-5-3-4-3-9-3-5-1-9-2-3-2-1 1-2h2l2-5 6-10h2z" fill="#F08D38"/>
<path transform="translate(345,421)" d="m0 0 4 1 6 15 3 5-1 4h-5l-2 5-2 4-4 5-1 3h-2l-1 8 4 5 7 5v2h3l1 2 12 5-3 1-10-4-16-10v-2l-4-2-6-6v-2h-2l-6-11v-6l12-14h2v-2l4-3h2l2-6z" fill="#EF8D38"/>
<path transform="translate(76,456)" d="m0 0 2 1 5 19 2 7 15 36 9 17 8 16 7 12 11 16 13 16 8 10 5 5v2l4 2 12 12 8 7 9 8 14 10 16 11 12 7-1 2-6-2-14-9-5-4-14-9v-2l-5-1-8-6v-2l-4-1v-2l-4-2v-2l-4-2v-2h-2v-2h-2v-2l-4-2-5-4-1-4h-2v-3l-3 1v-2h-2l-5-7-2-2v-3h-3l-5-10v-2h-2l-6-8-2-4-2-3-3-2 1-1-5-2 1-2-1-1-2-8h-2l-1-4-2-2-3-6v-2l-2-1-3-2v-2h-3l-1-3-2-1-10-30-7-30z" fill="#C99773"/>
<path transform="translate(501,193)" d="m0 0 5 2 7 9 8 16 2 6v10l-3 4-16 4-9 2-15 8-9 4-10 1-10-2-7-3-1-3h28l12-4 10-7 6-9 3-12v-18z" fill="#F6AD3E"/>
<path transform="translate(298,171)" d="m0 0 2 1v4h2l2 4 2 18v12l2 10 4 8 3 5-1 2-7-1-10-8-6-1-2 5-1 2-3-1-1-6 1-20 2-7 4-11 4-6 2-4z" fill="#F6BA45"/>
<path transform="translate(530,236)" d="m0 0 7 6 4 5 10 14 1 4h2l1 4 3 1 4 7v3l-9 2h-9l-9-4-6-6v-35z" fill="#58211D"/>
<path transform="translate(395,462)" d="m0 0h9l6 3 4 6v7l-5 10-9 3-7-1-2-1v-2h-3v-2l-3-1-2-5v-7l4-6 4-3z" fill="#F7BB46"/>
<path transform="translate(309,192)" d="m0 0 4 2 8 10 8 12 2 2v3h2l6 9-1 3-10 2-9-3-6-5-4-7-1-3v-24z" fill="#58211D"/>
<path transform="translate(232,235)" d="m0 0h3l2 23 2 8v7l-6 3-2 7-2 18-1 4-4-1-2-7v-27l3-17 3-10 3-7z" fill="#F6AE3E"/>
<path transform="translate(325,354)" d="m0 0h7l6 5 1 2v9l-6 7h-11l-6-7v-8l5-6z" fill="#F6B443"/>
<path transform="translate(453,284)" d="m0 0h7l22 7 17 7 15 8 11 6 14 8 17 12 16 12 9 9 2 1v2h2l7 8 14 14 7 8 4 5-1 2-15-15-7-8-9-9v-2l-4-2-12-11-14-11-13-10-15-9-21-12-23-10-21-7-9-2z" fill="#F08D38"/>
<path transform="translate(582,268)" d="m0 0h1v12l-4 10-3 1v2l-8 6-9-3-3-5-6-4 2-2 13-2 12-4 2-5z" fill="#F08D38"/>
<path transform="translate(261,684)" d="m0 0 10 3 14 6 27 9 26 6 25 4 10 1 28 1 1 2h-17l-31-1-2-2-15-2-32-8-10-3-6-2-10-4-10-3v-2l-7-2z" fill="#C09981"/>
<path transform="translate(523,229)" d="m0 0 2 4v8l-12 4-13 1-12 6h-2v2l-7 4-10 3h-14l-13-4v-2l-4-1-3-2v-2h-2l-1-4 5 1 8 3-1 4 5 1 5 2 11 1 9-2 19-10 4-2 14-3 9-2 2-3z" fill="#F39B3B"/>
<path transform="translate(390,344)" d="m0 0h12l11 2 5 2-4 1-9-2h-14l-16 5-10 6-7 8-7 11-4 15v20l5 2-2 6-3-4-2-5-1-7v-14l4-13 5-10 9-10 9-6 15-6z" fill="#58211D"/>
<path transform="translate(369,439)" d="m0 0h4v2h2l1 4 4 1 1 1 9 1 2 1h15l12-2 7-1-3 3-13 4h-23l-15-5-9-7v-1z" fill="#8E3725"/>
<path transform="translate(76,456)" d="m0 0 2 1 5 19 2 7 15 36 9 17 5 11-1 2-7-12-6-12-7-15-6-10-1-6-3-9-1-5h-2z" fill="#F08D38"/>
<path transform="translate(328,61)" d="m0 0 4 1-10 5-4 1-8 3-9 3-8 2-5 2-7 1-3 1v-4l30-10z" fill="#F19F42"/>
<path transform="translate(390,284)" d="m0 0h15l13 2 23 7 8 4-3 1-10-4-14-4-13-2h-20l-16 3-11 3-3-1 14-5z" fill="#B9472A"/>
<path transform="translate(347,296)" d="m0 0m-1 1 1 2-13 8-8 6h-2l-1 3-6 5-13 18-3 5-2 4v-8l7-10 10-13 12-10 11-7z" fill="#C09A82"/>
<path transform="translate(239,256)" d="m0 0 5 1 6 9v2l3 1 4 8-1 2-9-3-6-8z" fill="#58211D"/>
<path transform="translate(232,99)" d="m0 0 2 1-1 2h-3l-1 3-5 5-5 3-6 5h-4v2l-5 2-1-1-3 3h-2l1-3 17-12z" fill="#F09E43"/>
<path transform="translate(81,480)" d="m0 0 2 3 3 10 4 10 3 5v6l2 3 1 8-2 2-9-27-4-16z" fill="#C9A88F"/>
<path transform="translate(189,385)" d="m0 0 2 1-5 8-2 6 2 7h3l3 5 2 1 3 5-1 3-5-5-1-3h-2l-8-11-1-4 4-7h2l1-3z" fill="#C59879"/>
<path transform="translate(261,684)" d="m0 0 10 3 14 6 24 8v2l-6-1-13-3-7-3-10-4-4-1v-2l-7-2z" fill="#C99773"/>
<path transform="translate(276,77)" d="m0 0 1 3-5 3-7 2-10 4-3 3-7 3-4 3-6 1v-2l20-11z" fill="#F2A242"/>
<path transform="translate(455,300)" d="m0 0 6 2 6 4 3 1v2l4 2v2l4 1 8 9 3 5 7 10 1 5-4-5-6-9-9-11-14-11-9-6z" fill="#C09A82"/>
<path transform="translate(298,169)" d="m0 0h2l2 7h-2l-1-4-2 8-3 4-4 8-4 10-3 3 2-10 8-17z" fill="#F5A73D"/>
<path transform="translate(421,446)" d="m0 0h5l-3 3-14 3h-18l-9-2v-2l5-1 5 2h15l12-2z" fill="#63251E"/>
<path transform="translate(353,105)" d="m0 0 4 1 4 5-1 4-2 1-1 7v9h-1l-3-19z" fill="#F5A73D"/>
<path transform="translate(365,55)" d="m0 0 4 1-18 5-15 1-3-2z" fill="#EFA147"/>
<path transform="translate(523,229)" d="m0 0 2 4v8l-12 4-7-1 1-2 13-3 2-3z" fill="#F39B3B"/>
<path transform="translate(209,654)" d="m0 0 5 2 10 7 12 7-1 2-6-2-14-9-5-4z" fill="#D19567"/>
<path transform="translate(230,244)" d="m0 0 4 2 1 11-2 5-4-4v-6l1-2z" fill="#F7BA45"/>
<path transform="translate(302,178)" d="m0 0 2 2 2 18v18h-1l-2-8-1-10z" fill="#F5A53D"/>
<path transform="translate(76,456)" d="m0 0 2 1 5 19 1 2-2 3-2-1z" fill="#E59450"/>
<path transform="translate(232,235)" d="m0 0h3v11l-7-2 2-7z" fill="#F5A53D"/>
<path transform="translate(672,196)" d="m0 0 5 5 6 8 3 9 1 4-3-3-6-12-5-6v-3l-2-1z" fill="#EE8E3B"/>
<path transform="translate(280,267)" d="m0 0 1 3-5 7-9 5-3 1h-8v-1l12-3 6-4z" fill="#F2963A"/>
<path transform="translate(501,193)" d="m0 0 5 2 2 4-4 1v14h-1z" fill="#F19439"/>
<path transform="translate(276,77)" d="m0 0 1 3-5 3-7 2-4 1 1-3z" fill="#F1A042"/>
<path transform="translate(261,684)" d="m0 0 10 3 6 3v2l-8-1v-2l-7-2z" fill="#CE956B"/>
<path transform="translate(345,184)" d="m0 0 4 1 4 5v2h-4l-2 2z" fill="#F19139"/>
<path transform="translate(357,134)" d="m0 0 2 3 3 11-1 9h-1l-3-18z" fill="#F4A23C"/>
<path transform="translate(287,190)" d="m0 0 3 3-6 12-1-3z" fill="#F4A43C"/>
<path transform="translate(245,676)" d="m0 0 5 2 7 4 4 2-3 1-12-6z" fill="#D19567"/>
<path transform="translate(342,234)" d="m0 0 2 1-3 4h-2v2l-8-1v-2l9-1z" fill="#F7BB46"/>
<path transform="translate(613,390)" d="m0 0 5 3 2 3-1 6-4 4 2-10-4-4z" fill="#C1997F"/>
<path transform="translate(244,92)" d="m0 0h2l-2 4-3 2-6 1v-2z" fill="#EE9E48"/>
<path transform="translate(365,55)" d="m0 0 4 1-15 4v-3z" fill="#F1A344"/>
<path transform="translate(691,231)" d="m0 0 4 1 2 6-3 1-3-5z" fill="#CB9872"/>
<path transform="translate(672,196)" d="m0 0 5 5 4 6-4-1-4-5v-3l-2-1z" fill="#E7934B"/>
<path transform="translate(346,412)" d="m0 0 4 1 2 1-2 6-3-4z" fill="#5F231E"/>
</svg>
