<svg width="24" height="24" viewBox="0 0 24 24" fill="none" xmlns="http://www.w3.org/2000/svg">
<g clip-path="url(#clip0_100_212)">
<g filter="url(#filter0_d_100_212)">
<path d="M12 22.0363C18.0249 22.0363 22.9091 17.1521 22.9091 11.1272C22.9091 5.10231 18.0249 0.21814 12 0.21814C5.97509 0.21814 1.09091 5.10231 1.09091 11.1272C1.09091 13.1622 1.64808 15.067 2.61818 16.6974L1.09091 22.0363L6.42984 20.509C8.06027 21.4792 9.96507 22.0363 12 22.0363Z" fill="white" stroke="white" stroke-linejoin="round"/>
<path d="M22.0364 11.1272C22.0364 5.58425 17.5429 1.09082 12 1.09082C6.45709 1.09082 1.96365 5.58425 1.96365 11.1272C1.96365 16.6701 6.45709 21.1635 12 21.1635C17.5429 21.1635 22.0364 16.6701 22.0364 11.1272Z" fill="#EDA200"/>
<mask id="mask0_100_212" style="mask-type:luminance" maskUnits="userSpaceOnUse" x="5" y="3" width="14" height="16">
<path d="M18.4364 3.68701H5.56363V18.5674H18.4364V3.68701Z" fill="white"/>
</mask>
<g mask="url(#mask0_100_212)">
<path d="M10.819 6.58039C10.4057 6.52135 9.41564 6.66305 8.09294 9.11952C7.59448 10.0452 7.54997 10.8099 7.74705 11.4224C5.91371 13.7254 3.6288 18.3666 9.15581 18.5083H15.7103C17.6195 18.2969 20.3752 16.5321 16.1236 11.1643C16.7994 9.68854 14.7896 7.62098 13.4074 6.58039H10.819Z" fill="#272727"/>
<path d="M10.819 6.58035H13.4074C13.2927 6.58035 13.1611 6.53776 13.0182 6.46227C12.4707 6.17298 11.7562 5.40075 11.1834 4.69078C10.9204 4.36482 10.6873 4.05197 10.5139 3.80505H9.74631C9.74631 4.84432 10.4647 6.08828 10.819 6.58035Z" fill="#272727"/>
<path d="M11.813 3.98218C11.6359 4.19868 11.262 4.64353 11.1834 4.69077C11.7562 5.40073 12.4707 6.17296 13.0182 6.46225C13.8407 6.22605 14.014 5.18285 13.9979 4.69077L11.813 3.98218Z" fill="#272727"/>
<path d="M9.74632 13.2529C9.05944 13.0321 8.07293 12.4353 7.74705 11.4224M7.74705 11.4224C7.54997 10.8099 7.59448 10.0452 8.09294 9.11948C9.41564 6.66302 10.4057 6.52131 10.819 6.58035M7.74705 11.4224C5.91371 13.7253 3.6288 18.3666 9.15581 18.5083H15.7103C17.6195 18.2969 20.3752 16.532 16.1236 11.1643M7.74705 11.4224C7.64254 12.0129 7.81146 13.3828 8.33896 13.6663M10.819 6.58035H13.4074M10.819 6.58035C10.4647 6.08828 9.74632 4.84432 9.74632 3.80505H10.5139C10.6873 4.05197 10.9204 4.36482 11.1834 4.69078M16.1236 11.1643C16.7994 9.6885 14.7896 7.62094 13.4074 6.58035M16.1236 11.1643C15.943 11.5588 15.5704 11.911 14.9426 12.19M13.4074 6.58035C13.2927 6.58035 13.1611 6.53776 13.0182 6.46227M11.1834 4.69078C11.262 4.64355 11.6359 4.1987 11.813 3.9822L13.9979 4.69078C14.014 5.18287 13.8407 6.22606 13.0182 6.46227M11.1834 4.69078C11.7562 5.40075 12.4707 6.17298 13.0182 6.46227" stroke="black" stroke-width="0.2"/>
<path d="M7.57131 8.94228C6.84304 8.33211 5.90613 6.78108 7.98466 5.45837" stroke="black" stroke-width="0.1" stroke-dasharray="1 1"/>
<path d="M8.41352 5.44406C8.42085 5.43937 8.42299 5.42964 8.4183 5.42231L8.41323 5.41441C8.43577 5.3896 8.45395 5.36242 8.46837 5.33545L8.47598 5.33711L8.48942 5.35816C8.49411 5.36549 8.50384 5.36765 8.51118 5.36296C8.51851 5.35827 8.52064 5.34852 8.51598 5.34121L8.499 5.31466C8.49675 5.31114 8.4932 5.30866 8.48912 5.30776L8.48264 5.30634C8.49132 5.28712 8.49839 5.26858 8.50382 5.25204L8.54499 5.26112C8.54665 5.26146 8.54835 5.26157 8.55006 5.2614L8.58507 5.25771C8.59371 5.2568 8.6 5.24905 8.59908 5.24039C8.59812 5.23175 8.5904 5.22549 8.58178 5.22638L8.54931 5.22981L8.51272 5.22176C8.51639 5.20788 8.51872 5.19701 8.52006 5.19008C8.53712 5.1923 8.55586 5.18192 8.56563 5.16304C8.56984 5.1549 8.5717 5.14618 8.57159 5.13784C8.58051 5.11526 8.57905 5.08901 8.56496 5.06698C8.55086 5.0449 8.52765 5.03255 8.50339 5.03117C8.49586 5.02757 8.48715 5.02559 8.47803 5.02598C8.45678 5.02694 8.4395 5.0396 8.43435 5.056C8.4275 5.05428 8.41666 5.05186 8.40254 5.04935L8.41059 5.01278L8.42733 4.98477C8.43178 4.97728 8.42936 4.96764 8.42189 4.96317C8.41443 4.95872 8.40475 4.96114 8.4003 4.9686L8.38225 4.99882C8.38138 5.00026 8.38075 5.00185 8.3804 5.00351L8.37132 5.0447C8.35404 5.04265 8.33423 5.0413 8.31315 5.0411L8.31457 5.03462C8.31547 5.03054 8.3147 5.02629 8.31246 5.02275L8.2955 4.99622C8.29083 4.98891 8.2811 4.98675 8.27377 4.99142C8.26642 4.99611 8.26428 5.00586 8.26897 5.01319L8.28241 5.03423L8.28073 5.04184C8.25021 5.04359 8.2179 5.04867 8.18593 5.05871L8.18087 5.05079C8.1762 5.04346 8.16647 5.04132 8.15912 5.04601C8.15179 5.0507 8.14967 5.06043 8.15434 5.06774L8.15574 5.06992C8.1414 5.07608 8.12724 5.08306 8.11363 5.09176C8.05576 5.12874 8.07549 5.16954 8.08293 5.18115C8.09619 5.20192 8.12323 5.21962 8.15728 5.2314C8.15392 5.25603 8.16082 5.28258 8.18017 5.31287C8.1995 5.34313 8.22073 5.36056 8.24449 5.36785C8.24087 5.40372 8.24556 5.43566 8.25883 5.45643C8.26627 5.46806 8.295 5.5031 8.35286 5.46612C8.36648 5.45741 8.37878 5.44751 8.39037 5.43708L8.39176 5.43926C8.39643 5.44659 8.40616 5.44875 8.41352 5.44406ZM8.22184 5.21357C8.17077 5.20814 8.12456 5.18785 8.10946 5.1642C8.10582 5.15853 8.09475 5.14118 8.1306 5.11829C8.24126 5.04758 8.39235 5.07828 8.42672 5.08659C8.4296 5.09486 8.43302 5.10987 8.42484 5.12017C8.38579 5.16863 8.27573 5.21925 8.22184 5.21357ZM8.48087 5.0889C8.46411 5.08965 8.44893 5.07944 8.44834 5.06674C8.44777 5.05371 8.46139 5.0425 8.47875 5.04171C8.49126 5.04117 8.50288 5.04627 8.50829 5.05476C8.51013 5.05762 8.51113 5.06069 8.51128 5.06388C8.51185 5.0769 8.49822 5.08814 8.48087 5.0889ZM8.54519 5.11696C8.54803 5.11845 8.5504 5.12065 8.55222 5.12351C8.55765 5.13199 8.55743 5.14467 8.55163 5.15582C8.54366 5.17122 8.52774 5.17886 8.51617 5.17288C8.50494 5.16701 8.50201 5.14893 8.50971 5.13405C8.5177 5.11862 8.53363 5.11098 8.54519 5.11696ZM8.28538 5.43948C8.27026 5.41585 8.27124 5.36538 8.28778 5.31675C8.30525 5.26546 8.39744 5.18685 8.45781 5.17177C8.47059 5.16867 8.48279 5.17808 8.48907 5.18418C8.48218 5.21885 8.44657 5.36885 8.33591 5.43959C8.30008 5.46248 8.289 5.44517 8.28538 5.43948Z" fill="#111918"/>
<path d="M9.81519 9.35568C10.0109 9.35568 10.1695 9.19707 10.1695 9.0014C10.1695 8.80574 10.0109 8.64709 9.81519 8.64709C9.61952 8.64709 9.46091 8.80574 9.46091 9.0014C9.46091 9.19707 9.61952 9.35568 9.81519 9.35568Z" fill="white"/>
<path d="M10.1695 9.70993C10.3652 9.70993 10.5238 9.55131 10.5238 9.35563C10.5238 9.15996 10.3652 9.00134 10.1695 9.00134C9.97383 9.00134 9.81519 9.15996 9.81519 9.35563C9.81519 9.55131 9.97383 9.70993 10.1695 9.70993Z" fill="white"/>
</g>
</g>
</g>
<defs>
<filter id="filter0_d_100_212" x="-0.409103" y="-0.28186" width="24.8182" height="24.8182" filterUnits="userSpaceOnUse" color-interpolation-filters="sRGB">
<feFlood flood-opacity="0" result="BackgroundImageFix"/>
<feColorMatrix in="SourceAlpha" type="matrix" values="0 0 0 0 0 0 0 0 0 0 0 0 0 0 0 0 0 0 127 0" result="hardAlpha"/>
<feOffset dy="1"/>
<feGaussianBlur stdDeviation="0.5"/>
<feComposite in2="hardAlpha" operator="out"/>
<feColorMatrix type="matrix" values="0 0 0 0 0 0 0 0 0 0 0 0 0 0 0 0 0 0 0.5 0"/>
<feBlend mode="normal" in2="BackgroundImageFix" result="effect1_dropShadow_100_212"/>
<feBlend mode="normal" in="SourceGraphic" in2="effect1_dropShadow_100_212" result="shape"/>
</filter>
<clipPath id="clip0_100_212">
<rect width="24" height="24" fill="white"/>
</clipPath>
</defs>
</svg>
